<svg width="46" height="46" viewBox="0 0 37 37" fill="none" xmlns="http://www.w3.org/2000/svg">
<path d="M18.5995 7.05985C21.9795 7.05985 24.2595 8.51985 25.5595 9.73985L30.6395 4.77985C27.5195 1.87985 23.4595 0.0998535 18.5995 0.0998535C11.5595 0.0998535 5.47953 4.13985 2.51953 10.0199L8.33953 14.5399C9.79953 10.1999 13.8395 7.05985 18.5995 7.05985Z" fill="#EA4335"/>
<path d="M35.8801 18.4998C35.8801 17.0198 35.7601 15.9398 35.5001 14.8198H18.6001V21.4998H28.5201C28.3201 23.1598 27.2401 25.6598 24.8401 27.3398L30.5201 31.7398C33.9201 28.5998 35.8801 23.9798 35.8801 18.4998Z" fill="#4285F4"/>
<path d="M8.3601 21.6598C7.9801 20.5398 7.7601 19.3398 7.7601 18.0998C7.7601 16.8598 7.9801 15.6598 8.3401 14.5398L2.5201 10.0198C1.3001 12.4598 0.600098 15.1998 0.600098 18.0998C0.600098 20.9998 1.3001 23.7398 2.5201 26.1798L8.3601 21.6598Z" fill="#FBBC05"/>
<path d="M18.6 36.0997C23.46 36.0997 27.54 34.4997 30.52 31.7397L24.84 27.3397C23.32 28.3997 21.28 29.1397 18.6 29.1397C13.84 29.1397 9.80004 25.9997 8.36004 21.6597L2.54004 26.1797C5.50004 32.0597 11.56 36.0997 18.6 36.0997Z" fill="#34A853"/>
</svg>
