<svg width="46" height="46" viewBox="0 0 46 46" fill="none" xmlns="http://www.w3.org/2000/svg">
<g id="Group 595">
<path id="path400-6-0" d="M0.5 45.6819L3.6788 34.0754C1.71823 30.6788 0.686742 26.8252 0.688 22.8776C0.693024 10.5275 10.7435 0.47998 23.094 0.47998C29.0873 0.482904 34.7127 2.81529 38.9435 7.04908C43.1731 11.2829 45.5021 16.9103 45.5 22.8956C45.4945 35.2449 35.4424 45.2941 23.094 45.2941C23.0931 45.2941 23.0949 45.2941 23.094 45.2941H23.0843C19.3348 45.2926 15.6504 44.352 12.3776 42.5673L0.5 45.6819Z" fill="white"/>
<path id="path15" d="M23.1028 4.26465C12.8303 4.26465 4.47643 12.6155 4.47266 22.88C4.47114 26.3974 5.45551 29.8234 7.31957 32.7877L7.76271 33.492L5.88093 40.3615L12.9294 38.5134L13.61 38.9167C16.4686 40.6133 19.746 41.5104 23.0884 41.5121H23.0955C33.36 41.5121 41.7139 33.1604 41.7181 22.8951C41.7199 17.9206 39.7848 13.2429 36.2686 9.72415C32.7524 6.20545 28.0772 4.26675 23.1028 4.26465Z" fill="url(#paint0_linear_1438_5253)"/>
<path id="path418-6" fill-rule="evenodd" clip-rule="evenodd" d="M17.4961 13.515C17.0765 12.5829 16.635 12.5641 16.2364 12.5477C15.9099 12.5338 15.5364 12.5347 15.1633 12.5347C14.7899 12.5347 14.1835 12.6748 13.6707 13.2351C13.1574 13.7953 11.7109 15.1495 11.7109 17.904C11.7109 20.6586 13.7172 23.3199 13.9967 23.6938C14.2766 24.0673 17.8696 29.9004 23.5604 32.1442C28.2893 34.0091 29.2516 33.6381 30.2785 33.545C31.3049 33.4518 33.5907 32.1908 34.0569 30.8836C34.5236 29.5764 34.5236 28.4564 34.3838 28.2222C34.2437 27.9885 33.8706 27.8487 33.3104 27.5688C32.7506 27.2889 29.9981 25.9343 29.4849 25.7476C28.9717 25.5608 28.5986 25.4677 28.2251 26.0279C27.8521 26.5881 26.7799 27.8487 26.453 28.2222C26.1265 28.5961 25.8 28.6427 25.2398 28.3628C24.68 28.082 22.8768 27.4916 20.7379 25.5843C19.0736 24.1005 17.9502 22.2679 17.6233 21.7077C17.2968 21.1474 17.5885 20.8445 17.8692 20.5654C18.1206 20.3144 18.429 19.9116 18.7093 19.5847C18.9884 19.2578 19.082 19.0245 19.2683 18.6514C19.455 18.2775 19.3619 17.9506 19.2217 17.6707C19.082 17.3908 17.9938 14.622 17.4961 13.515Z" fill="white"/>
</g>
<defs>
<linearGradient id="paint0_linear_1438_5253" x1="22.7162" y1="6.4999" x2="22.9051" y2="38.33" gradientUnits="userSpaceOnUse">
<stop stop-color="#57D163"/>
<stop offset="1" stop-color="#23B33A"/>
</linearGradient>
</defs>
</svg>
